<svg xmlns="http://www.w3.org/2000/svg" viewBox="0 0 16 16"><defs><style>.cls-1,.cls-2{fill:none;}.cls-1{stroke:#1294ee;stroke-linecap:round;stroke-linejoin:round;}.cls-3{fill:#1294ee;}</style></defs><title>集中扫描</title><g id="图层_2" data-name="图层 2"><g id="图层_1-2" data-name="图层 1"><polyline class="cls-1" points="14.5 10.75 14.5 13.5 11.71 13.5"/><polyline class="cls-1" points="11.71 2.5 14.5 2.5 14.5 5.48"/><polyline class="cls-1" points="1.5 5.25 1.5 2.5 4.29 2.5"/><polyline class="cls-1" points="4.29 13.5 1.5 13.5 1.5 10.75"/><rect class="cls-2" width="16" height="16"/><rect class="cls-3" x="0.5" y="7.5" width="6" height="1" rx="0.5" ry="0.5" transform="translate(-4.5 11.5) rotate(-90)"/><rect class="cls-3" x="3.5" y="7.5" width="6" height="1" rx="0.5" ry="0.5" transform="translate(-1.5 14.5) rotate(-90)"/><rect class="cls-3" x="6.5" y="7.5" width="6" height="1" rx="0.5" ry="0.5" transform="translate(1.5 17.5) rotate(-90)"/><rect class="cls-3" x="9.5" y="7.5" width="6" height="1" rx="0.5" ry="0.5" transform="translate(4.5 20.5) rotate(-90)"/></g></g></svg>