<svg xmlns="http://www.w3.org/2000/svg" viewBox="0 0 16 16"><defs><style>.cls-1,.cls-2{fill:none;}.cls-2{stroke:#1294ee;stroke-linecap:round;stroke-linejoin:round;}.cls-3{fill:#1294ee;}</style></defs><title>共享影像审核</title><g id="图层_2" data-name="图层 2"><g id="图层_1-2" data-name="图层 1"><rect class="cls-1" width="16" height="16"/><polyline class="cls-2" points="11.71 1.5 14.5 1.5 14.5 4.48"/><polyline class="cls-2" points="1.5 4.25 1.5 1.5 4.29 1.5"/><polyline class="cls-2" points="4.29 14.5 1.5 14.5 1.5 11.75"/><path class="cls-3" d="M4.5,7.5a1,1,0,1,1-1,1,1,1,0,0,1,1-1m0-1a2,2,0,1,0,2,2,2,2,0,0,0-2-2Z"/><path class="cls-3" d="M10.5,3.5a1,1,0,1,1-1,1,1,1,0,0,1,1-1m0-1a2,2,0,1,0,2,2,2,2,0,0,0-2-2Z"/><path class="cls-3" d="M11,9.5A1.5,1.5,0,1,1,9.5,11,1.5,1.5,0,0,1,11,9.5m0-1A2.5,2.5,0,1,0,13.5,11,2.5,2.5,0,0,0,11,8.5Z"/><line class="cls-2" x1="6.08" y1="9.09" x2="8.87" y2="10.14"/><line class="cls-2" x1="9.12" y1="5.42" x2="5.99" y2="7.51"/></g></g></svg>