<svg xmlns="http://www.w3.org/2000/svg" viewBox="0 0 16 16"><defs><style>.cls-1{fill:none;}.cls-2{fill:#1294ee;}</style></defs><title>云盘影像</title><g id="图层_2" data-name="图层 2"><g id="图层_1-2" data-name="图层 1"><rect class="cls-1" width="16" height="16"/><path class="cls-2" d="M9,8a3,3,0,0,1,2.9,2.28,1,1,0,0,0,.82.75,1.49,1.49,0,0,1-.22,3h-7a1.49,1.49,0,0,1-.22-3,1,1,0,0,0,.82-.75A3,3,0,0,1,9,8M9,7a4,4,0,0,0-3.87,3,2.49,2.49,0,0,0,.37,5h7a2.49,2.49,0,0,0,.37-5A4,4,0,0,0,9,7Z"/><path class="cls-2" d="M2,2.5A.5.5,0,0,1,2.5,2H12V1H2A1,1,0,0,0,1,2V8H2Z"/><path class="cls-2" d="M4.35,9.2a5,5,0,0,1,9.3,0,3.68,3.68,0,0,1,.35.15V3H4A1,1,0,0,0,3,4v6h.06A3.43,3.43,0,0,1,4.35,9.2Z"/></g></g></svg>