<svg xmlns="http://www.w3.org/2000/svg" xmlns:xlink="http://www.w3.org/1999/xlink" fill="none" version="1.1" width="206" height="146" viewBox="0 0 206 146"><defs><filter id="master_svg0_4555_004756" filterUnits="objectBoundingBox" color-interpolation-filters="sRGB" x="-24" y="-20" width="86.96981811523438" height="51.17391300201416"><feFlood flood-opacity="0" result="BackgroundImageFix"/><feColorMatrix in="SourceAlpha" type="matrix" values="0 0 0 0 0 0 0 0 0 0 0 0 0 0 0 0 0 0 127 0"/><feOffset dy="4" dx="0"/><feGaussianBlur stdDeviation="6"/><feColorMatrix type="matrix" values="0 0 0 0 0 0 0 0 0 0 0 0 0 0 0 0 0 0 0.09000000357627869 0"/><feBlend mode="normal" in2="BackgroundImageFix" result="effect1_dropShadow"/><feBlend mode="normal" in="SourceGraphic" in2="effect1_dropShadow" result="shape"/></filter><filter id="master_svg1_4555_004743" filterUnits="objectBoundingBox" color-interpolation-filters="sRGB" x="-24" y="-20" width="67.0872573852539" height="49.58695650100708"><feFlood flood-opacity="0" result="BackgroundImageFix"/><feColorMatrix in="SourceAlpha" type="matrix" values="0 0 0 0 0 0 0 0 0 0 0 0 0 0 0 0 0 0 127 0"/><feOffset dy="4" dx="0"/><feGaussianBlur stdDeviation="6"/><feColorMatrix type="matrix" values="0 0 0 0 0 0 0 0 0 0 0 0 0 0 0 0 0 0 0.09000000357627869 0"/><feBlend mode="normal" in2="BackgroundImageFix" result="effect1_dropShadow"/><feBlend mode="normal" in="SourceGraphic" in2="effect1_dropShadow" result="shape"/></filter><filter id="master_svg2_4555_004742" filterUnits="objectBoundingBox" color-interpolation-filters="sRGB" x="-24" y="-20" width="73.44967651367188" height="50.38043475151062"><feFlood flood-opacity="0" result="BackgroundImageFix"/><feColorMatrix in="SourceAlpha" type="matrix" values="0 0 0 0 0 0 0 0 0 0 0 0 0 0 0 0 0 0 127 0"/><feOffset dy="4" dx="0"/><feGaussianBlur stdDeviation="6"/><feColorMatrix type="matrix" values="0 0 0 0 0 0 0 0 0 0 0 0 0 0 0 0 0 0 0.09000000357627869 0"/><feBlend mode="normal" in2="BackgroundImageFix" result="effect1_dropShadow"/><feBlend mode="normal" in="SourceGraphic" in2="effect1_dropShadow" result="shape"/></filter><filter id="master_svg3_4555_004673" filterUnits="objectBoundingBox" color-interpolation-filters="sRGB" x="-24" y="-20" width="88.45236587524414" height="51.302152156829834"><feFlood flood-opacity="0" result="BackgroundImageFix"/><feColorMatrix in="SourceAlpha" type="matrix" values="0 0 0 0 0 0 0 0 0 0 0 0 0 0 0 0 0 0 127 0"/><feOffset dy="4" dx="0"/><feGaussianBlur stdDeviation="6"/><feColorMatrix type="matrix" values="0 0 0 0 0 0 0 0 0 0 0 0 0 0 0 0 0 0 0.09000000357627869 0"/><feBlend mode="normal" in2="BackgroundImageFix" result="effect1_dropShadow"/><feBlend mode="normal" in="SourceGraphic" in2="effect1_dropShadow" result="shape"/></filter><filter id="master_svg4_4555_004661" filterUnits="objectBoundingBox" color-interpolation-filters="sRGB" x="-24" y="-20" width="67.81340408325195" height="49.65107607841492"><feFlood flood-opacity="0" result="BackgroundImageFix"/><feColorMatrix in="SourceAlpha" type="matrix" values="0 0 0 0 0 0 0 0 0 0 0 0 0 0 0 0 0 0 127 0"/><feOffset dy="4" dx="0"/><feGaussianBlur stdDeviation="6"/><feColorMatrix type="matrix" values="0 0 0 0 0 0 0 0 0 0 0 0 0 0 0 0 0 0 0.09000000357627869 0"/><feBlend mode="normal" in2="BackgroundImageFix" result="effect1_dropShadow"/><feBlend mode="normal" in="SourceGraphic" in2="effect1_dropShadow" result="shape"/></filter><filter id="master_svg5_4555_004678" filterUnits="objectBoundingBox" color-interpolation-filters="sRGB" x="-24" y="-20" width="74.41787147521973" height="50.476613998413086"><feFlood flood-opacity="0" result="BackgroundImageFix"/><feColorMatrix in="SourceAlpha" type="matrix" values="0 0 0 0 0 0 0 0 0 0 0 0 0 0 0 0 0 0 127 0"/><feOffset dy="4" dx="0"/><feGaussianBlur stdDeviation="6"/><feColorMatrix type="matrix" values="0 0 0 0 0 0 0 0 0 0 0 0 0 0 0 0 0 0 0.09000000357627869 0"/><feBlend mode="normal" in2="BackgroundImageFix" result="effect1_dropShadow"/><feBlend mode="normal" in="SourceGraphic" in2="effect1_dropShadow" result="shape"/></filter><filter id="master_svg6_4555_004628" filterUnits="objectBoundingBox" color-interpolation-filters="sRGB" x="-24" y="-20" width="88.45236587524414" height="51.302152156829834"><feFlood flood-opacity="0" result="BackgroundImageFix"/><feColorMatrix in="SourceAlpha" type="matrix" values="0 0 0 0 0 0 0 0 0 0 0 0 0 0 0 0 0 0 127 0"/><feOffset dy="4" dx="0"/><feGaussianBlur stdDeviation="6"/><feColorMatrix type="matrix" values="0 0 0 0 0 0 0 0 0 0 0 0 0 0 0 0 0 0 0.09000000357627869 0"/><feBlend mode="normal" in2="BackgroundImageFix" result="effect1_dropShadow"/><feBlend mode="normal" in="SourceGraphic" in2="effect1_dropShadow" result="shape"/></filter><filter id="master_svg7_4555_004622" filterUnits="objectBoundingBox" color-interpolation-filters="sRGB" x="-24" y="-20" width="67.81340408325195" height="49.65107607841492"><feFlood flood-opacity="0" result="BackgroundImageFix"/><feColorMatrix in="SourceAlpha" type="matrix" values="0 0 0 0 0 0 0 0 0 0 0 0 0 0 0 0 0 0 127 0"/><feOffset dy="4" dx="0"/><feGaussianBlur stdDeviation="6"/><feColorMatrix type="matrix" values="0 0 0 0 0 0 0 0 0 0 0 0 0 0 0 0 0 0 0.09000000357627869 0"/><feBlend mode="normal" in2="BackgroundImageFix" result="effect1_dropShadow"/><feBlend mode="normal" in="SourceGraphic" in2="effect1_dropShadow" result="shape"/></filter><filter id="master_svg8_4555_004626" filterUnits="objectBoundingBox" color-interpolation-filters="sRGB" x="-24" y="-20" width="74.41787147521973" height="50.476613998413086"><feFlood flood-opacity="0" result="BackgroundImageFix"/><feColorMatrix in="SourceAlpha" type="matrix" values="0 0 0 0 0 0 0 0 0 0 0 0 0 0 0 0 0 0 127 0"/><feOffset dy="4" dx="0"/><feGaussianBlur stdDeviation="6"/><feColorMatrix type="matrix" values="0 0 0 0 0 0 0 0 0 0 0 0 0 0 0 0 0 0 0.09000000357627869 0"/><feBlend mode="normal" in2="BackgroundImageFix" result="effect1_dropShadow"/><feBlend mode="normal" in="SourceGraphic" in2="effect1_dropShadow" result="shape"/></filter><filter id="master_svg9_4555_004702" filterUnits="objectBoundingBox" color-interpolation-filters="sRGB" x="-24" y="-20" width="88.45236587524414" height="51.302152156829834"><feFlood flood-opacity="0" result="BackgroundImageFix"/><feColorMatrix in="SourceAlpha" type="matrix" values="0 0 0 0 0 0 0 0 0 0 0 0 0 0 0 0 0 0 127 0"/><feOffset dy="4" dx="0"/><feGaussianBlur stdDeviation="6"/><feColorMatrix type="matrix" values="0 0 0 0 0 0 0 0 0 0 0 0 0 0 0 0 0 0 0.09000000357627869 0"/><feBlend mode="normal" in2="BackgroundImageFix" result="effect1_dropShadow"/><feBlend mode="normal" in="SourceGraphic" in2="effect1_dropShadow" result="shape"/></filter><filter id="master_svga_4555_004720" filterUnits="objectBoundingBox" color-interpolation-filters="sRGB" x="-24" y="-20" width="67.81340408325195" height="49.65107607841492"><feFlood flood-opacity="0" result="BackgroundImageFix"/><feColorMatrix in="SourceAlpha" type="matrix" values="0 0 0 0 0 0 0 0 0 0 0 0 0 0 0 0 0 0 127 0"/><feOffset dy="4" dx="0"/><feGaussianBlur stdDeviation="6"/><feColorMatrix type="matrix" values="0 0 0 0 0 0 0 0 0 0 0 0 0 0 0 0 0 0 0.09000000357627869 0"/><feBlend mode="normal" in2="BackgroundImageFix" result="effect1_dropShadow"/><feBlend mode="normal" in="SourceGraphic" in2="effect1_dropShadow" result="shape"/></filter><filter id="master_svgb_4555_004719" filterUnits="objectBoundingBox" color-interpolation-filters="sRGB" x="-24" y="-20" width="74.41787147521973" height="50.476613998413086"><feFlood flood-opacity="0" result="BackgroundImageFix"/><feColorMatrix in="SourceAlpha" type="matrix" values="0 0 0 0 0 0 0 0 0 0 0 0 0 0 0 0 0 0 127 0"/><feOffset dy="4" dx="0"/><feGaussianBlur stdDeviation="6"/><feColorMatrix type="matrix" values="0 0 0 0 0 0 0 0 0 0 0 0 0 0 0 0 0 0 0.09000000357627869 0"/><feBlend mode="normal" in2="BackgroundImageFix" result="effect1_dropShadow"/><feBlend mode="normal" in="SourceGraphic" in2="effect1_dropShadow" result="shape"/></filter></defs><g><g transform="matrix(1,0,0,-1,0,292)"><path d="M0,155.77383C0,150.37589,4.35729,146,9.73228,146L196.268,146C201.643,146,206,150.37589,206,155.77383L206,268.98699999999997L0,268.98699999999997L0,155.77383Z" fill="#F7F9FC" fill-opacity="1"/></g><g><rect x="7.158304214477539" y="29.361019134521484" width="192.478759765625" height="109.50885772705078" rx="4" fill="#FFFFFF" fill-opacity="1"/></g><g style="opacity:0.800000011920929;"><g><rect x="49.308746337890625" y="49.98912811279297" width="54.8758659362793" height="64.27173614501953" rx="0" fill="#F7F9FC" fill-opacity="1"/><rect x="49.808746337890625" y="50.48912811279297" width="53.8758659362793" height="63.27173614501953" rx="0" fill-opacity="0" stroke-opacity="1" stroke="#E8E8E8" fill="none" stroke-width="1"/></g><g><g filter="url(#master_svg0_4555_004756)"><rect x="57.261770248413086" y="57.92391061782837" width="38.969818115234375" height="3.17391300201416" rx="0" fill="#E5E9EE" fill-opacity="1"/></g><g><rect x="57.261770248413086" y="75.38043260574341" width="9.543628692626953" height="1.58695650100708" rx="0" fill="#E5E9EE" fill-opacity="1"/></g><g><rect x="53.285258293151855" y="95.2173867225647" width="6.362419128417969" height="1.58695650100708" rx="0" fill="#E5E9EE" fill-opacity="1"/></g><g><rect x="53.285258293151855" y="101.56521463394165" width="6.362419128417969" height="1.58695650100708" rx="0" fill="#E5E9EE" fill-opacity="1"/></g><g><rect x="53.285258293151855" y="98.3913025856018" width="6.362419128417969" height="1.58695650100708" rx="0" fill="#D8D8D8" fill-opacity="1"/></g><g><rect x="53.285258293151855" y="104.7391266822815" width="6.362419128417969" height="1.58695650100708" rx="0" fill="#D8D8D8" fill-opacity="1"/></g><g><rect x="60.44297981262207" y="95.2173867225647" width="6.362419128417969" height="1.58695650100708" rx="0" fill="#E5E9EE" fill-opacity="1"/></g><g><rect x="60.44297981262207" y="101.56521463394165" width="6.362419128417969" height="1.58695650100708" rx="0" fill="#E5E9EE" fill-opacity="1"/></g><g><rect x="60.44297981262207" y="98.3913025856018" width="6.362419128417969" height="1.58695650100708" rx="0" fill="#D8D8D8" fill-opacity="1"/></g><g><rect x="60.44297981262207" y="104.7391266822815" width="6.362419128417969" height="1.58695650100708" rx="0" fill="#D8D8D8" fill-opacity="1"/></g><g><rect x="69.98660945892334" y="95.2173867225647" width="6.362419128417969" height="1.58695650100708" rx="0" fill="#E5E9EE" fill-opacity="1"/></g><g><rect x="69.98660945892334" y="101.56521463394165" width="6.362419128417969" height="1.58695650100708" rx="0" fill="#E5E9EE" fill-opacity="1"/></g><g><rect x="69.98660945892334" y="98.3913025856018" width="6.362419128417969" height="1.58695650100708" rx="0" fill="#D8D8D8" fill-opacity="1"/></g><g><rect x="69.98660945892334" y="104.7391266822815" width="6.362419128417969" height="1.58695650100708" rx="0" fill="#D8D8D8" fill-opacity="1"/></g><g><rect x="77.14433002471924" y="95.2173867225647" width="6.362419128417969" height="1.58695650100708" rx="0" fill="#E5E9EE" fill-opacity="1"/></g><g><rect x="53.285258293151855" y="108.70651865005493" width="6.362419128417969" height="1.58695650100708" rx="0" fill="#E5E9EE" fill-opacity="1"/></g><g><rect x="60.44298601150513" y="108.70651865005493" width="6.362419128417969" height="1.58695650100708" rx="0" fill="#E5E9EE" fill-opacity="1"/></g><g><rect x="77.14433002471924" y="98.3913025856018" width="6.362419128417969" height="1.58695650100708" rx="0" fill="#D8D8D8" fill-opacity="1"/></g><g><rect x="77.14433002471924" y="101.56521463394165" width="6.362419128417969" height="1.58695650100708" rx="0" fill="#D8D8D8" fill-opacity="1"/></g><g><rect x="77.14433002471924" y="104.7391266822815" width="6.362419128417969" height="1.58695650100708" rx="0" fill="#D8D8D8" fill-opacity="1"/></g><g><rect x="85.89265727996826" y="95.2173867225647" width="6.362419128417969" height="1.58695650100708" rx="0" fill="#E5E9EE" fill-opacity="1"/></g><g><rect x="85.89265727996826" y="101.56521463394165" width="6.362419128417969" height="1.58695650100708" rx="0" fill="#E5E9EE" fill-opacity="1"/></g><g><rect x="85.89265727996826" y="98.3913025856018" width="6.362419128417969" height="1.58695650100708" rx="0" fill="#D8D8D8" fill-opacity="1"/></g><g><rect x="85.89265727996826" y="104.7391266822815" width="6.362419128417969" height="1.58695650100708" rx="0" fill="#D8D8D8" fill-opacity="1"/></g><g><rect x="93.84567928314209" y="95.2173867225647" width="6.362419128417969" height="1.58695650100708" rx="0" fill="#E5E9EE" fill-opacity="1"/></g><g><rect x="93.84567928314209" y="101.56521463394165" width="6.362419128417969" height="1.58695650100708" rx="0" fill="#E5E9EE" fill-opacity="1"/></g><g><rect x="93.84567928314209" y="98.3913025856018" width="6.362419128417969" height="1.58695650100708" rx="0" fill="#D8D8D8" fill-opacity="1"/></g><g><rect x="93.84567928314209" y="104.7391266822815" width="6.362419128417969" height="1.58695650100708" rx="0" fill="#D8D8D8" fill-opacity="1"/></g><g><rect x="53.285258293151855" y="78.55434465408325" width="46.9228401184082" height="1.58695650100708" rx="0" fill="#D8D8D8" fill-opacity="1"/></g><g><rect x="53.285258293151855" y="92.04347467422485" width="46.9228401184082" height="1.58695650100708" rx="0" fill="#E5E9EE" fill-opacity="1"/></g><g><rect x="53.285258293151855" y="81.72825860977173" width="19.087257385253906" height="1.58695650100708" rx="0" fill="#E5E9EE" fill-opacity="1"/></g><g filter="url(#master_svg1_4555_004743)"><rect x="64.4194917678833" y="89.66304063796997" width="19.087257385253906" height="1.58695650100708" rx="0" fill="#D8D8D8" fill-opacity="1"/></g><g filter="url(#master_svg2_4555_004742)"><rect x="63.624189376831055" y="69.03260660171509" width="25.449676513671875" height="2.38043475151062" rx="0" fill="#D8D8D8" fill-opacity="1"/></g></g><g><path d="M54.87586307525635,64.8652151107788L99.81046307525635,64.8652151107788Q99.85026307525635,64.8652151107788,99.88696307525635,64.88043911077881Q99.92376307525635,64.89566311077881,99.95186307525634,64.92379411077881Q99.97996307525635,64.9519241107788,99.99526307525635,64.9886784107788Q100.01046307525635,65.02543261077881,100.01046307525635,65.06521511077881Q100.01046307525635,65.10499761077881,99.99526307525635,65.14175181077881Q99.97996307525635,65.17850611077881,99.95186307525634,65.2066361107788Q99.92376307525635,65.2347671107788,99.88696307525635,65.24999111077881Q99.85026307525635,65.26521511077881,99.81046307525635,65.26521511077881L54.87586307525635,65.26521511077881Q54.83608057525635,65.26521511077881,54.79932637525635,65.24999111077881Q54.76257207525635,65.2347671107788,54.73444207525635,65.2066361107788Q54.706311075256345,65.17850611077881,54.69108707525635,65.14175181077881Q54.675863075256345,65.10499761077881,54.675863075256345,65.06521511077881Q54.675863075256345,65.02543261077881,54.69108707525635,64.9886784107788Q54.706311075256345,64.9519241107788,54.73444207525635,64.92379411077881Q54.76257207525635,64.89566311077881,54.79932637525635,64.88043911077881Q54.83608057525635,64.8652151107788,54.87586307525635,64.8652151107788Z" fill-rule="evenodd" fill="#D8D8D8" fill-opacity="1"/></g></g><g><g><path d="M0,9.77383C0,4.37589,4.35729,0,9.73228,0L196.268,0C201.643,0,206,4.37589,206,9.77383L206,22.8056L0,22.8056L0,9.77383Z" fill="#C9CED4" fill-opacity="1"/></g><g><g><path d="M22.70865939453125,11.402788200531006Q22.70865939453125,11.522758200531005,22.702799394531247,11.642578200531005Q22.69693939453125,11.762398200531006,22.685229394531248,11.881788200531005Q22.673519394531247,12.001178200531005,22.65598939453125,12.119848200531006Q22.63845939453125,12.238518200531006,22.61515939453125,12.356178200531005Q22.591849394531252,12.473838200531006,22.56282939453125,12.590218200531005Q22.53379939453125,12.706588200531005,22.499129394531252,12.821388200531006Q22.46444939453125,12.936188200531006,22.42420939453125,13.049138200531006Q22.38395939453125,13.162098200531005,22.33824939453125,13.272928200531005Q22.29252939453125,13.383768200531005,22.241459394531248,13.492218200531006Q22.190389394531252,13.600658200531006,22.134069394531252,13.706468200531006Q22.07775939453125,13.812268200531005,22.01634939453125,13.915168200531006Q21.95493939453125,14.018068200531005,21.888569394531252,14.117808200531005Q21.82219939453125,14.217558200531005,21.75103939453125,14.313918200531006Q21.67987939453125,14.410278200531007,21.60409939453125,14.503018200531006Q21.528319394531252,14.595748200531006,21.44808939453125,14.684638200531007Q21.367869394531247,14.773528200531006,21.28339939453125,14.858358200531006Q21.19892939453125,14.943188200531006,21.11041939453125,15.023758200531006Q21.02190939453125,15.104318200531006,20.92956939453125,15.180428200531006Q20.83722939453125,15.256528200531006,20.74127939453125,15.327998200531006Q20.64532939453125,15.399458200531006,20.54599939453125,15.466108200531005Q20.44667939453125,15.532758200531006,20.34421939453125,15.594438200531005Q20.24175939453125,15.656108200531007,20.13639939453125,15.712658200531006Q20.03104939453125,15.769208200531006,19.92305939453125,15.820508200531005Q19.81507939453125,15.871798200531005,19.70470939453125,15.917708200531006Q19.59434939453125,15.963618200531005,19.48186939453125,16.004038200531006Q19.36939939453125,16.044448200531008,19.25508939453125,16.079278200531007Q19.14076939453125,16.114098200531004,19.02489939453125,16.143248200531005Q18.90901939453125,16.172398200531006,18.79185939453125,16.195798200531005Q18.67469939453125,16.219208200531007,18.55652939453125,16.236808200531005Q18.43836939453125,16.254408200531007,18.31948939453125,16.266168200531006Q18.20060939453125,16.277928200531008,18.08128939453125,16.283818200531005Q17.961979394531248,16.289698200531006,17.84251939453125,16.289708200531006Q17.723059394531248,16.289698200531006,17.60374939453125,16.283818200531005Q17.48443939453125,16.277928200531008,17.36555939453125,16.266168200531006Q17.24666939453125,16.254408200531007,17.12850939453125,16.236808200531005Q17.01034939453125,16.219208200531007,16.89317939453125,16.195798200531005Q16.77601939453125,16.172398200531006,16.66014939453125,16.143248200531005Q16.54426939453125,16.114098200531004,16.42994939453125,16.079268200531004Q16.31563939453125,16.044448200531008,16.20316939453125,16.004028200531003Q16.09068939453125,15.963618200531005,15.98032939453125,15.917708200531006Q15.86996939453125,15.871798200531005,15.76197939453125,15.820508200531005Q15.65398939453125,15.769208200531006,15.54863939453125,15.712658200531006Q15.44328939453125,15.656108200531007,15.34081939453125,15.594438200531005Q15.23835939453125,15.532758200531006,15.139039394531249,15.466108200531005Q15.03970939453125,15.399458200531006,14.94375939453125,15.327998200531006Q14.84781939453125,15.256528200531006,14.75546939453125,15.180428200531006Q14.66312939453125,15.104318200531006,14.57461939453125,15.023758200531006Q14.48610939453125,14.943188200531006,14.40163939453125,14.858358200531006Q14.31716939453125,14.773528200531006,14.23694939453125,14.684638200531007Q14.15672939453125,14.595748200531006,14.08093939453125,14.503018200531006Q14.00515939453125,14.410278200531007,13.93399939453125,14.313918200531006Q13.86283839453125,14.217558200531005,13.79647239453125,14.117818200531005Q13.73010539453125,14.018068200531005,13.66869239453125,13.915168200531006Q13.60727839453125,13.812268200531005,13.55096739453125,13.706468200531006Q13.49465539453125,13.600668200531006,13.44358139453125,13.492218200531006Q13.39250639453125,13.383768200531005,13.34679239453125,13.272928200531005Q13.30107839453125,13.162098200531005,13.26083439453125,13.049138200531006Q13.22059039453125,12.936188200531006,13.18591339453125,12.821388200531006Q13.15123739453125,12.706588200531005,13.12221139453125,12.590218200531005Q13.09318539453125,12.473838200531006,13.06988089453125,12.356178200531005Q13.04657599453125,12.238518200531006,13.02904799453125,12.119848200531006Q13.01151999453125,12.001178200531005,12.99981119453125,11.881788200531005Q12.98810239453125,11.762398200531006,12.98224087453125,11.642578200531005Q12.97637939453125,11.522758200531005,12.97637939453125,11.402788200531006Q12.97637939453125,11.282828200531005,12.98224087453125,11.162998200531007Q12.98810239453125,11.043178200531006,12.99981119453125,10.923788200531007Q13.01151999453125,10.804398200531006,13.02904799453125,10.685728200531006Q13.04657599453125,10.567068200531006,13.06988089453125,10.449398200531006Q13.09318539453125,10.331738200531007,13.12221139453125,10.215368200531007Q13.15123739453125,10.098998200531007,13.18591339453125,9.984198200531006Q13.22059039453125,9.869398200531005,13.26083439453125,9.756438200531006Q13.30107839453125,9.643488200531007,13.34679239453125,9.532648200531007Q13.39250639453125,9.421818200531007,13.44358139453125,9.313368200531006Q13.49465539453125,9.204918200531006,13.55096739453125,9.099118200531006Q13.60727839453125,8.993318200531006,13.66869239453125,8.890418200531006Q13.73010539453125,8.787518200531006,13.79647239453125,8.687768200531005Q13.86283839453125,8.588018200531007,13.93399939453125,8.491658200531006Q14.00515939453125,8.395298200531006,14.08093939453125,8.302568200531006Q14.15672939453125,8.209828200531007,14.23694939453125,8.120938200531006Q14.31716939453125,8.032048200531007,14.40163939453125,7.947218200531006Q14.48610939453125,7.862388200531006,14.57461939453125,7.781828200531006Q14.66312939453125,7.701258200531006,14.75546939453125,7.625158200531006Q14.84781939453125,7.549048200531006,14.94375939453125,7.477586200531006Q15.03970939453125,7.406121200531006,15.139039394531249,7.339471200531006Q15.23835939453125,7.272821200531006,15.34081939453125,7.211146200531006Q15.44328939453125,7.149470200531006,15.54863939453125,7.092918200531006Q15.65398939453125,7.036366200531006,15.76197939453125,6.985074200531006Q15.86996939453125,6.933781200531006,15.98032939453125,6.887872200531006Q16.09068939453125,6.841963200531006,16.20316939453125,6.801547200531006Q16.31563939453125,6.761131200531006,16.42994939453125,6.726307200531006Q16.54426939453125,6.691482200531006,16.66014939453125,6.662333200531005Q16.77601939453125,6.633183200531006,16.89317939453125,6.609778900531006Q17.01034939453125,6.586374500531006,17.12850939453125,6.568771600531006Q17.24666939453125,6.551168800531006,17.36555939453125,6.539410000531006Q17.48443939453125,6.527651200531006,17.60374939453125,6.521764700531006Q17.723059394531248,6.515878200531006,17.84251939453125,6.515878200531006Q17.961979394531248,6.515878200531006,18.08128939453125,6.521764700531006Q18.20060939453125,6.527651200531006,18.31948939453125,6.539410000531006Q18.43836939453125,6.551168800531006,18.55652939453125,6.568771600531006Q18.67469939453125,6.586374500531006,18.79185939453125,6.609778900531006Q18.90901939453125,6.633183200531006,19.02489939453125,6.662333200531005Q19.14076939453125,6.691482200531006,19.25508939453125,6.726307200531006Q19.36939939453125,6.761131200531006,19.48186939453125,6.801547200531006Q19.59434939453125,6.841963200531006,19.70470939453125,6.887872200531006Q19.81507939453125,6.933781200531006,19.92305939453125,6.985074200531006Q20.03104939453125,7.036366200531006,20.13639939453125,7.092918200531006Q20.24175939453125,7.149470200531006,20.34421939453125,7.211146200531006Q20.44667939453125,7.272821200531006,20.54599939453125,7.339471200531006Q20.64532939453125,7.406121200531006,20.74127939453125,7.477586200531006Q20.83722939453125,7.549048200531006,20.92956939453125,7.625158200531006Q21.02190939453125,7.701258200531006,21.11041939453125,7.781828200531006Q21.19892939453125,7.862388200531006,21.28339939453125,7.947218200531006Q21.367869394531247,8.032048200531007,21.44808939453125,8.120938200531006Q21.528319394531252,8.209828200531007,21.60409939453125,8.302568200531006Q21.67987939453125,8.395298200531006,21.75103939453125,8.491658200531006Q21.82219939453125,8.588018200531007,21.888569394531252,8.687768200531005Q21.95493939453125,8.787518200531006,22.01634939453125,8.890418200531006Q22.07775939453125,8.993318200531006,22.134069394531252,9.099118200531006Q22.190389394531252,9.204918200531006,22.241459394531248,9.313368200531006Q22.29252939453125,9.421818200531007,22.33824939453125,9.532648200531007Q22.38395939453125,9.643488200531007,22.42420939453125,9.756438200531006Q22.46444939453125,9.869398200531005,22.499129394531252,9.984198200531006Q22.53379939453125,10.098998200531007,22.56282939453125,10.215368200531007Q22.591849394531252,10.331738200531007,22.61515939453125,10.449398200531006Q22.63845939453125,10.567068200531006,22.65598939453125,10.685728200531006Q22.673519394531247,10.804398200531006,22.685229394531248,10.923788200531007Q22.69693939453125,11.043178200531006,22.702799394531247,11.162998200531007Q22.70865939453125,11.282828200531005,22.70865939453125,11.402788200531006Z" fill="#F5F8FF" fill-opacity="1"/></g><g><path d="M42.17322467163086,11.402788200531006Q42.17322467163086,11.522758200531005,42.16736467163086,11.642578200531005Q42.16150467163086,11.762398200531006,42.14979467163086,11.881788200531005Q42.13808467163086,12.001178200531005,42.120554671630856,12.119848200531006Q42.10302467163086,12.238518200531006,42.079724671630856,12.356178200531005Q42.05641467163086,12.473838200531006,42.02739467163086,12.590218200531005Q41.99836467163086,12.706588200531005,41.96369467163086,12.821388200531006Q41.92901467163086,12.936188200531006,41.888774671630856,13.049138200531006Q41.848524671630855,13.162098200531005,41.802814671630856,13.272928200531005Q41.75709467163086,13.383768200531005,41.70602467163086,13.492218200531006Q41.65495467163086,13.600658200531006,41.59863467163086,13.706468200531006Q41.54232467163086,13.812268200531005,41.480914671630856,13.915168200531006Q41.41950467163086,14.018068200531005,41.35313467163086,14.117808200531005Q41.28676467163086,14.217558200531005,41.21560467163086,14.313918200531006Q41.14444467163086,14.410278200531007,41.068664671630856,14.503018200531006Q40.99288467163086,14.595748200531006,40.91265467163086,14.684638200531007Q40.83243467163086,14.773528200531006,40.74796467163086,14.858358200531006Q40.66349467163086,14.943188200531006,40.57498467163086,15.023758200531006Q40.48647467163086,15.104318200531006,40.39413467163086,15.180428200531006Q40.30179467163086,15.256528200531006,40.20584467163086,15.327998200531006Q40.10989467163086,15.399458200531006,40.01056467163086,15.466108200531005Q39.91124467163086,15.532758200531006,39.80878467163086,15.594438200531005Q39.70632467163086,15.656108200531007,39.60096467163086,15.712658200531006Q39.49561467163086,15.769208200531006,39.38762467163086,15.820508200531005Q39.27964467163086,15.871798200531005,39.16927467163086,15.917708200531006Q39.05891467163086,15.963618200531005,38.94643467163086,16.004038200531006Q38.83396467163086,16.044448200531008,38.71965467163086,16.079278200531007Q38.60533467163086,16.114098200531004,38.489464671630856,16.143248200531005Q38.37358467163086,16.172398200531006,38.25642467163086,16.195798200531005Q38.13926467163086,16.219208200531007,38.02109467163086,16.236808200531005Q37.90293467163086,16.254408200531007,37.78405467163086,16.266168200531006Q37.66517467163086,16.277928200531008,37.54585467163086,16.283818200531005Q37.42654467163086,16.289698200531006,37.30708467163086,16.289708200531006Q37.18762467163086,16.289698200531006,37.06831467163086,16.283818200531005Q36.94900467163086,16.277928200531008,36.830124671630855,16.266168200531006Q36.71123467163086,16.254408200531007,36.59307467163086,16.236808200531005Q36.474914671630856,16.219208200531007,36.35774467163086,16.195798200531005Q36.240584671630856,16.172398200531006,36.12471467163086,16.143248200531005Q36.00883467163086,16.114098200531004,35.89451467163086,16.079268200531004Q35.78020467163086,16.044448200531008,35.66773467163086,16.004028200531003Q35.55525467163086,15.963618200531005,35.44489467163086,15.917708200531006Q35.33453467163086,15.871798200531005,35.22654467163086,15.820508200531005Q35.11855467163086,15.769208200531006,35.01320467163086,15.712658200531006Q34.90785467163086,15.656108200531007,34.80538467163086,15.594438200531005Q34.70292467163086,15.532758200531006,34.60360467163086,15.466108200531005Q34.50427467163086,15.399458200531006,34.40832467163086,15.327998200531006Q34.31238467163086,15.256528200531006,34.220034671630856,15.180428200531006Q34.12769467163086,15.104318200531006,34.039184671630856,15.023758200531006Q33.95067467163086,14.943188200531006,33.86620467163086,14.858358200531006Q33.78173467163086,14.773528200531006,33.70151467163086,14.684638200531007Q33.62129467163086,14.595748200531006,33.54550467163086,14.503018200531006Q33.46972467163086,14.410278200531007,33.39856467163086,14.313918200531006Q33.32740367163086,14.217558200531005,33.26103767163086,14.117818200531005Q33.19467067163086,14.018068200531005,33.13325767163086,13.915168200531006Q33.07184367163086,13.812268200531005,33.01553267163086,13.706468200531006Q32.95922067163086,13.600668200531006,32.90814667163086,13.492218200531006Q32.85707167163086,13.383768200531005,32.81135767163086,13.272928200531005Q32.76564367163086,13.162098200531005,32.72539967163086,13.049138200531006Q32.68515567163086,12.936188200531006,32.65047867163086,12.821388200531006Q32.61580267163086,12.706588200531005,32.58677667163086,12.590218200531005Q32.557750671630856,12.473838200531006,32.53444617163086,12.356178200531005Q32.51114127163086,12.238518200531006,32.493613271630856,12.119848200531006Q32.47608527163086,12.001178200531005,32.46437647163086,11.881788200531005Q32.45266767163086,11.762398200531006,32.44680615163086,11.642578200531005Q32.44094467163086,11.522758200531005,32.44094467163086,11.402788200531006Q32.44094467163086,11.282828200531005,32.44680615163086,11.162998200531007Q32.45266767163086,11.043178200531006,32.46437647163086,10.923788200531007Q32.47608527163086,10.804398200531006,32.493613271630856,10.685728200531006Q32.51114127163086,10.567068200531006,32.53444617163086,10.449398200531006Q32.557750671630856,10.331738200531007,32.58677667163086,10.215368200531007Q32.61580267163086,10.098998200531007,32.65047867163086,9.984198200531006Q32.68515567163086,9.869398200531005,32.72539967163086,9.756438200531006Q32.76564367163086,9.643488200531007,32.81135767163086,9.532648200531007Q32.85707167163086,9.421818200531007,32.90814667163086,9.313368200531006Q32.95922067163086,9.204918200531006,33.01553267163086,9.099118200531006Q33.07184367163086,8.993318200531006,33.13325767163086,8.890418200531006Q33.19467067163086,8.787518200531006,33.26103767163086,8.687768200531005Q33.32740367163086,8.588018200531007,33.39856467163086,8.491658200531006Q33.46972467163086,8.395298200531006,33.54550467163086,8.302568200531006Q33.62129467163086,8.209828200531007,33.70151467163086,8.120938200531006Q33.78173467163086,8.032048200531007,33.86620467163086,7.947218200531006Q33.95067467163086,7.862388200531006,34.039184671630856,7.781828200531006Q34.12769467163086,7.701258200531006,34.220034671630856,7.625158200531006Q34.31238467163086,7.549048200531006,34.40832467163086,7.477586200531006Q34.50427467163086,7.406121200531006,34.60360467163086,7.339471200531006Q34.70292467163086,7.272821200531006,34.80538467163086,7.211146200531006Q34.90785467163086,7.149470200531006,35.01320467163086,7.092918200531006Q35.11855467163086,7.036366200531006,35.22654467163086,6.985074200531006Q35.33453467163086,6.933781200531006,35.44489467163086,6.887872200531006Q35.55525467163086,6.841963200531006,35.66773467163086,6.801547200531006Q35.78020467163086,6.761131200531006,35.89451467163086,6.726307200531006Q36.00883467163086,6.691482200531006,36.12471467163086,6.662333200531005Q36.240584671630856,6.633183200531006,36.35774467163086,6.609778900531006Q36.474914671630856,6.586374500531006,36.59307467163086,6.568771600531006Q36.71123467163086,6.551168800531006,36.830124671630855,6.539410000531006Q36.94900467163086,6.527651200531006,37.06831467163086,6.521764700531006Q37.18762467163086,6.515878200531006,37.30708467163086,6.515878200531006Q37.42654467163086,6.515878200531006,37.54585467163086,6.521764700531006Q37.66517467163086,6.527651200531006,37.78405467163086,6.539410000531006Q37.90293467163086,6.551168800531006,38.02109467163086,6.568771600531006Q38.13926467163086,6.586374500531006,38.25642467163086,6.609778900531006Q38.37358467163086,6.633183200531006,38.489464671630856,6.662333200531005Q38.60533467163086,6.691482200531006,38.71965467163086,6.726307200531006Q38.83396467163086,6.761131200531006,38.94643467163086,6.801547200531006Q39.05891467163086,6.841963200531006,39.16927467163086,6.887872200531006Q39.27964467163086,6.933781200531006,39.38762467163086,6.985074200531006Q39.49561467163086,7.036366200531006,39.60096467163086,7.092918200531006Q39.70632467163086,7.149470200531006,39.80878467163086,7.211146200531006Q39.91124467163086,7.272821200531006,40.01056467163086,7.339471200531006Q40.10989467163086,7.406121200531006,40.20584467163086,7.477586200531006Q40.30179467163086,7.549048200531006,40.39413467163086,7.625158200531006Q40.48647467163086,7.701258200531006,40.57498467163086,7.781828200531006Q40.66349467163086,7.862388200531006,40.74796467163086,7.947218200531006Q40.83243467163086,8.032048200531007,40.91265467163086,8.120938200531006Q40.99288467163086,8.209828200531007,41.068664671630856,8.302568200531006Q41.14444467163086,8.395298200531006,41.21560467163086,8.491658200531006Q41.28676467163086,8.588018200531007,41.35313467163086,8.687768200531005Q41.41950467163086,8.787518200531006,41.480914671630856,8.890418200531006Q41.54232467163086,8.993318200531006,41.59863467163086,9.099118200531006Q41.65495467163086,9.204918200531006,41.70602467163086,9.313368200531006Q41.75709467163086,9.421818200531007,41.802814671630856,9.532648200531007Q41.848524671630855,9.643488200531007,41.888774671630856,9.756438200531006Q41.92901467163086,9.869398200531005,41.96369467163086,9.984198200531006Q41.99836467163086,10.098998200531007,42.02739467163086,10.215368200531007Q42.05641467163086,10.331738200531007,42.079724671630856,10.449398200531006Q42.10302467163086,10.567068200531006,42.120554671630856,10.685728200531006Q42.13808467163086,10.804398200531006,42.14979467163086,10.923788200531007Q42.16150467163086,11.043178200531006,42.16736467163086,11.162998200531007Q42.17322467163086,11.282828200531005,42.17322467163086,11.402788200531006Z" fill="#F5F8FF" fill-opacity="1"/></g><g><path d="M61.63778994873047,11.402788200531006Q61.63778994873047,11.522758200531005,61.631929948730466,11.642578200531005Q61.62606994873047,11.762398200531006,61.61435994873047,11.881788200531005Q61.602649948730466,12.001178200531005,61.585119948730465,12.119848200531006Q61.56758994873047,12.238518200531006,61.544289948730466,12.356178200531005Q61.52097994873047,12.473838200531006,61.49195994873047,12.590218200531005Q61.46292994873047,12.706588200531005,61.42825994873047,12.821388200531006Q61.39357994873047,12.936188200531006,61.353339948730465,13.049138200531006Q61.313089948730465,13.162098200531005,61.267379948730465,13.272928200531005Q61.22165994873047,13.383768200531005,61.170589948730466,13.492218200531006Q61.11951994873047,13.600658200531006,61.06319994873047,13.706468200531006Q61.00688994873047,13.812268200531005,60.945479948730465,13.915168200531006Q60.88406994873047,14.018068200531005,60.81769994873047,14.117808200531005Q60.75132994873047,14.217558200531005,60.680169948730466,14.313918200531006Q60.60900994873047,14.410278200531007,60.533229948730465,14.503018200531006Q60.45744994873047,14.595748200531006,60.37721994873047,14.684638200531007Q60.296999948730466,14.773528200531006,60.21252994873047,14.858358200531006Q60.12805994873047,14.943188200531006,60.03954994873047,15.023758200531006Q59.95103994873047,15.104318200531006,59.85869994873047,15.180428200531006Q59.76635994873047,15.256528200531006,59.670409948730466,15.327998200531006Q59.57445994873047,15.399458200531006,59.47512994873047,15.466108200531005Q59.37580994873047,15.532758200531006,59.27334994873047,15.594438200531005Q59.17088994873047,15.656108200531007,59.06552994873047,15.712658200531006Q58.96017994873047,15.769208200531006,58.85218994873047,15.820508200531005Q58.74420994873047,15.871798200531005,58.63383994873047,15.917708200531006Q58.52347994873047,15.963618200531005,58.41099994873047,16.004038200531006Q58.29852994873047,16.044448200531008,58.18421994873047,16.079278200531007Q58.069899948730466,16.114098200531004,57.954029948730465,16.143248200531005Q57.83814994873047,16.172398200531006,57.72098994873047,16.195798200531005Q57.60382994873047,16.219208200531007,57.48565994873047,16.236808200531005Q57.36749994873047,16.254408200531007,57.24861994873047,16.266168200531006Q57.12973994873047,16.277928200531008,57.01041994873047,16.283818200531005Q56.89110994873047,16.289698200531006,56.77164994873047,16.289708200531006Q56.65218994873047,16.289698200531006,56.53287994873047,16.283818200531005Q56.41356994873047,16.277928200531008,56.294689948730465,16.266168200531006Q56.17579994873047,16.254408200531007,56.05763994873047,16.236808200531005Q55.939479948730465,16.219208200531007,55.82230994873047,16.195798200531005Q55.705149948730465,16.172398200531006,55.58927994873047,16.143248200531005Q55.47339994873047,16.114098200531004,55.35907994873047,16.079268200531004Q55.24476994873047,16.044448200531008,55.13229994873047,16.004028200531003Q55.01981994873047,15.963618200531005,54.90945994873047,15.917708200531006Q54.79909994873047,15.871798200531005,54.69110994873047,15.820508200531005Q54.58311994873047,15.769208200531006,54.47776994873047,15.712658200531006Q54.37241994873047,15.656108200531007,54.26994994873047,15.594438200531005Q54.16748994873047,15.532758200531006,54.06816994873047,15.466108200531005Q53.96883994873047,15.399458200531006,53.87288994873047,15.327998200531006Q53.77694994873047,15.256528200531006,53.684599948730465,15.180428200531006Q53.59225994873047,15.104318200531006,53.503749948730466,15.023758200531006Q53.415239948730466,14.943188200531006,53.33076994873047,14.858358200531006Q53.24629994873047,14.773528200531006,53.16607994873047,14.684638200531007Q53.085859948730466,14.595748200531006,53.01006994873047,14.503018200531006Q52.934289948730466,14.410278200531007,52.86312994873047,14.313918200531006Q52.79196894873047,14.217558200531005,52.72560294873047,14.117818200531005Q52.65923594873047,14.018068200531005,52.59782294873047,13.915168200531006Q52.53640894873047,13.812268200531005,52.48009794873047,13.706468200531006Q52.42378594873047,13.600668200531006,52.37271194873047,13.492218200531006Q52.32163694873047,13.383768200531005,52.27592294873047,13.272928200531005Q52.23020894873047,13.162098200531005,52.18996494873047,13.049138200531006Q52.14972094873047,12.936188200531006,52.11504394873047,12.821388200531006Q52.08036794873047,12.706588200531005,52.05134194873047,12.590218200531005Q52.022315948730466,12.473838200531006,51.99901144873047,12.356178200531005Q51.97570654873047,12.238518200531006,51.958178548730466,12.119848200531006Q51.94065054873047,12.001178200531005,51.928941748730466,11.881788200531005Q51.91723294873047,11.762398200531006,51.91137142873047,11.642578200531005Q51.90550994873047,11.522758200531005,51.90550994873047,11.402788200531006Q51.90550994873047,11.282828200531005,51.91137142873047,11.162998200531007Q51.91723294873047,11.043178200531006,51.928941748730466,10.923788200531007Q51.94065054873047,10.804398200531006,51.958178548730466,10.685728200531006Q51.97570654873047,10.567068200531006,51.99901144873047,10.449398200531006Q52.022315948730466,10.331738200531007,52.05134194873047,10.215368200531007Q52.08036794873047,10.098998200531007,52.11504394873047,9.984198200531006Q52.14972094873047,9.869398200531005,52.18996494873047,9.756438200531006Q52.23020894873047,9.643488200531007,52.27592294873047,9.532648200531007Q52.32163694873047,9.421818200531007,52.37271194873047,9.313368200531006Q52.42378594873047,9.204918200531006,52.48009794873047,9.099118200531006Q52.53640894873047,8.993318200531006,52.59782294873047,8.890418200531006Q52.65923594873047,8.787518200531006,52.72560294873047,8.687768200531005Q52.79196894873047,8.588018200531007,52.86312994873047,8.491658200531006Q52.934289948730466,8.395298200531006,53.01006994873047,8.302568200531006Q53.085859948730466,8.209828200531007,53.16607994873047,8.120938200531006Q53.24629994873047,8.032048200531007,53.33076994873047,7.947218200531006Q53.415239948730466,7.862388200531006,53.503749948730466,7.781828200531006Q53.59225994873047,7.701258200531006,53.684599948730465,7.625158200531006Q53.77694994873047,7.549048200531006,53.87288994873047,7.477586200531006Q53.96883994873047,7.406121200531006,54.06816994873047,7.339471200531006Q54.16748994873047,7.272821200531006,54.26994994873047,7.211146200531006Q54.37241994873047,7.149470200531006,54.47776994873047,7.092918200531006Q54.58311994873047,7.036366200531006,54.69110994873047,6.985074200531006Q54.79909994873047,6.933781200531006,54.90945994873047,6.887872200531006Q55.01981994873047,6.841963200531006,55.13229994873047,6.801547200531006Q55.24476994873047,6.761131200531006,55.35907994873047,6.726307200531006Q55.47339994873047,6.691482200531006,55.58927994873047,6.662333200531005Q55.705149948730465,6.633183200531006,55.82230994873047,6.609778900531006Q55.939479948730465,6.586374500531006,56.05763994873047,6.568771600531006Q56.17579994873047,6.551168800531006,56.294689948730465,6.539410000531006Q56.41356994873047,6.527651200531006,56.53287994873047,6.521764700531006Q56.65218994873047,6.515878200531006,56.77164994873047,6.515878200531006Q56.89110994873047,6.515878200531006,57.01041994873047,6.521764700531006Q57.12973994873047,6.527651200531006,57.24861994873047,6.539410000531006Q57.36749994873047,6.551168800531006,57.48565994873047,6.568771600531006Q57.60382994873047,6.586374500531006,57.72098994873047,6.609778900531006Q57.83814994873047,6.633183200531006,57.954029948730465,6.662333200531005Q58.069899948730466,6.691482200531006,58.18421994873047,6.726307200531006Q58.29852994873047,6.761131200531006,58.41099994873047,6.801547200531006Q58.52347994873047,6.841963200531006,58.63383994873047,6.887872200531006Q58.74420994873047,6.933781200531006,58.85218994873047,6.985074200531006Q58.96017994873047,7.036366200531006,59.06552994873047,7.092918200531006Q59.17088994873047,7.149470200531006,59.27334994873047,7.211146200531006Q59.37580994873047,7.272821200531006,59.47512994873047,7.339471200531006Q59.57445994873047,7.406121200531006,59.670409948730466,7.477586200531006Q59.76635994873047,7.549048200531006,59.85869994873047,7.625158200531006Q59.95103994873047,7.701258200531006,60.03954994873047,7.781828200531006Q60.12805994873047,7.862388200531006,60.21252994873047,7.947218200531006Q60.296999948730466,8.032048200531007,60.37721994873047,8.120938200531006Q60.45744994873047,8.209828200531007,60.533229948730465,8.302568200531006Q60.60900994873047,8.395298200531006,60.680169948730466,8.491658200531006Q60.75132994873047,8.588018200531007,60.81769994873047,8.687768200531005Q60.88406994873047,8.787518200531006,60.945479948730465,8.890418200531006Q61.00688994873047,8.993318200531006,61.06319994873047,9.099118200531006Q61.11951994873047,9.204918200531006,61.170589948730466,9.313368200531006Q61.22165994873047,9.421818200531007,61.267379948730465,9.532648200531007Q61.313089948730465,9.643488200531007,61.353339948730465,9.756438200531006Q61.39357994873047,9.869398200531005,61.42825994873047,9.984198200531006Q61.46292994873047,10.098998200531007,61.49195994873047,10.215368200531007Q61.52097994873047,10.331738200531007,61.544289948730466,10.449398200531006Q61.56758994873047,10.567068200531006,61.585119948730465,10.685728200531006Q61.602649948730466,10.804398200531006,61.61435994873047,10.923788200531007Q61.62606994873047,11.043178200531006,61.631929948730466,11.162998200531007Q61.63778994873047,11.282828200531005,61.63778994873047,11.402788200531006Z" fill="#F5F8FF" fill-opacity="1"/></g></g></g><g><g style="opacity:0.8999999761581421;"><g><rect x="22.26846694946289" y="43.64130401611328" width="56.96353530883789" height="66.86857604980469" rx="0" fill="#F7F9FC" fill-opacity="1"/><rect x="22.76846694946289" y="44.14130401611328" width="55.96353530883789" height="65.86857604980469" rx="0" fill-opacity="0" stroke-opacity="1" stroke="#E8E8E8" fill="none" stroke-width="1"/></g><g><g filter="url(#master_svg3_4555_004673)"><rect x="30.524051666259766" y="51.896684646606445" width="40.45236587524414" height="3.302152156829834" rx="0" fill="#E5E9EE" fill-opacity="1"/></g><g><rect x="30.524051666259766" y="70.05852127075195" width="9.906702041625977" height="1.651076078414917" rx="0" fill="#E5E9EE" fill-opacity="1"/></g><g><rect x="26.396259307861328" y="90.69696998596191" width="6.604467868804932" height="1.651076078414917" rx="0" fill="#E5E9EE" fill-opacity="1"/></g><g><rect x="26.396259307861328" y="97.3012752532959" width="6.604467868804932" height="1.651076078414917" rx="0" fill="#E5E9EE" fill-opacity="1"/></g><g><rect x="26.396259307861328" y="93.99912452697754" width="6.604467868804932" height="1.651076078414917" rx="0" fill="#D8D8D8" fill-opacity="1"/></g><g><rect x="26.396259307861328" y="100.60342979431152" width="6.604467868804932" height="1.651076078414917" rx="0" fill="#D8D8D8" fill-opacity="1"/></g><g><rect x="33.82628583908081" y="90.69696998596191" width="6.604467868804932" height="1.651076078414917" rx="0" fill="#E5E9EE" fill-opacity="1"/></g><g><rect x="33.82628583908081" y="97.3012752532959" width="6.604467868804932" height="1.651076078414917" rx="0" fill="#E5E9EE" fill-opacity="1"/></g><g><rect x="33.82628583908081" y="93.99912452697754" width="6.604467868804932" height="1.651076078414917" rx="0" fill="#D8D8D8" fill-opacity="1"/></g><g><rect x="33.82628583908081" y="100.60342979431152" width="6.604467868804932" height="1.651076078414917" rx="0" fill="#D8D8D8" fill-opacity="1"/></g><g><rect x="43.732988357543945" y="90.69696998596191" width="6.604467868804932" height="1.651076078414917" rx="0" fill="#E5E9EE" fill-opacity="1"/></g><g><rect x="43.732988357543945" y="97.3012752532959" width="6.604467868804932" height="1.651076078414917" rx="0" fill="#E5E9EE" fill-opacity="1"/></g><g><rect x="43.732988357543945" y="93.99912452697754" width="6.604467868804932" height="1.651076078414917" rx="0" fill="#D8D8D8" fill-opacity="1"/></g><g><rect x="43.732988357543945" y="100.60342979431152" width="6.604467868804932" height="1.651076078414917" rx="0" fill="#D8D8D8" fill-opacity="1"/></g><g><rect x="51.16301345825195" y="90.69696998596191" width="6.604467868804932" height="1.651076078414917" rx="0" fill="#E5E9EE" fill-opacity="1"/></g><g><rect x="26.396259307861328" y="104.73111915588379" width="6.604467868804932" height="1.651076078414917" rx="0" fill="#E5E9EE" fill-opacity="1"/></g><g><rect x="33.82629203796387" y="104.73111915588379" width="6.604467868804932" height="1.651076078414917" rx="0" fill="#E5E9EE" fill-opacity="1"/></g><g><rect x="51.16301345825195" y="93.99912452697754" width="6.604467868804932" height="1.651076078414917" rx="0" fill="#D8D8D8" fill-opacity="1"/></g><g><rect x="51.16301345825195" y="97.3012752532959" width="6.604467868804932" height="1.651076078414917" rx="0" fill="#D8D8D8" fill-opacity="1"/></g><g><rect x="51.16301345825195" y="100.60342979431152" width="6.604467868804932" height="1.651076078414917" rx="0" fill="#D8D8D8" fill-opacity="1"/></g><g><rect x="60.24415588378906" y="90.69696998596191" width="6.604467868804932" height="1.651076078414917" rx="0" fill="#E5E9EE" fill-opacity="1"/></g><g><rect x="60.24415588378906" y="97.3012752532959" width="6.604467868804932" height="1.651076078414917" rx="0" fill="#E5E9EE" fill-opacity="1"/></g><g><rect x="60.24415588378906" y="93.99912452697754" width="6.604467868804932" height="1.651076078414917" rx="0" fill="#D8D8D8" fill-opacity="1"/></g><g><rect x="60.24415588378906" y="100.60342979431152" width="6.604467868804932" height="1.651076078414917" rx="0" fill="#D8D8D8" fill-opacity="1"/></g><g><rect x="68.4997444152832" y="90.69696998596191" width="6.604467868804932" height="1.651076078414917" rx="0" fill="#E5E9EE" fill-opacity="1"/></g><g><rect x="68.4997444152832" y="97.3012752532959" width="6.604467868804932" height="1.651076078414917" rx="0" fill="#E5E9EE" fill-opacity="1"/></g><g><rect x="68.4997444152832" y="93.99912452697754" width="6.604467868804932" height="1.651076078414917" rx="0" fill="#D8D8D8" fill-opacity="1"/></g><g><rect x="68.4997444152832" y="100.60342979431152" width="6.604467868804932" height="1.651076078414917" rx="0" fill="#D8D8D8" fill-opacity="1"/></g><g><rect x="26.396259307861328" y="73.36067390441895" width="48.707950592041016" height="1.651076078414917" rx="0" fill="#D8D8D8" fill-opacity="1"/></g><g><rect x="26.396259307861328" y="87.39481925964355" width="48.707950592041016" height="1.651076078414917" rx="0" fill="#E5E9EE" fill-opacity="1"/></g><g><rect x="26.396259307861328" y="76.6628246307373" width="19.813404083251953" height="1.651076078414917" rx="0" fill="#E5E9EE" fill-opacity="1"/></g><g filter="url(#master_svg4_4555_004661)"><rect x="37.95407772064209" y="84.9182071685791" width="19.813404083251953" height="1.651076078414917" rx="0" fill="#D8D8D8" fill-opacity="1"/></g><g filter="url(#master_svg5_4555_004678)"><rect x="37.128520011901855" y="63.45421600341797" width="26.417871475219727" height="2.476613998413086" rx="0" fill="#D8D8D8" fill-opacity="1"/></g></g><g><path d="M28.04737615585327,59.126525688171384L74.69147615585328,59.126525688171384Q74.73117615585326,59.126525688171384,74.76797615585326,59.14174968817139Q74.80467615585327,59.156973688171384,74.83287615585327,59.185104688171386Q74.86097615585328,59.21323468817139,74.87617615585327,59.24998898817139Q74.89137615585327,59.286743188171386,74.89147615585327,59.32652568817139Q74.89137615585327,59.36630818817139,74.87617615585327,59.403062388171385Q74.86097615585328,59.43981668817138,74.83287615585327,59.46794668817139Q74.80467615585327,59.49607768817139,74.76797615585326,59.511301688171386Q74.73117615585326,59.52652568817139,74.69147615585328,59.52652568817139L28.04737615585327,59.52652568817139Q28.00759365585327,59.52652568817139,27.970839455853273,59.511301688171386Q27.93408515585327,59.49607768817139,27.90595515585327,59.46794668817139Q27.877824155853272,59.43981668817138,27.862600155853272,59.403062388171385Q27.847376155853272,59.36630818817139,27.847376155853272,59.32652568817139Q27.847376155853272,59.286743188171386,27.862600155853272,59.24998898817139Q27.877824155853272,59.21323468817139,27.90595515585327,59.185104688171386Q27.93408515585327,59.156973688171384,27.970839455853273,59.14174968817139Q28.00759365585327,59.126525688171384,28.04737615585327,59.126525688171384Z" fill-rule="evenodd" fill="#D8D8D8" fill-opacity="1"/></g></g><g><g><rect x="126.75131607055664" y="47.86517333984375" width="56.96353530883789" height="66.86857604980469" rx="0" fill="#F7F9FC" fill-opacity="1"/><rect x="127.25131607055664" y="48.36517333984375" width="55.96353530883789" height="65.86857604980469" rx="0" fill-opacity="0" stroke-opacity="1" stroke="#E8E8E8" fill="none" stroke-width="1"/></g><g><g filter="url(#master_svg6_4555_004628)"><rect x="135.00690078735352" y="56.120553970336914" width="40.45236587524414" height="3.302152156829834" rx="0" fill="#E5E9EE" fill-opacity="1"/></g><g><rect x="135.00690078735352" y="74.28239059448242" width="9.906702041625977" height="1.651076078414917" rx="0" fill="#E5E9EE" fill-opacity="1"/></g><g><rect x="130.87910842895508" y="94.92083930969238" width="6.604467868804932" height="1.651076078414917" rx="0" fill="#E5E9EE" fill-opacity="1"/></g><g><rect x="130.87910842895508" y="101.52514457702637" width="6.604467868804932" height="1.651076078414917" rx="0" fill="#E5E9EE" fill-opacity="1"/></g><g><rect x="130.87910842895508" y="98.22299385070801" width="6.604467868804932" height="1.651076078414917" rx="0" fill="#D8D8D8" fill-opacity="1"/></g><g><rect x="130.87910842895508" y="104.82729911804199" width="6.604467868804932" height="1.651076078414917" rx="0" fill="#D8D8D8" fill-opacity="1"/></g><g><rect x="138.30913496017456" y="94.92083930969238" width="6.604467868804932" height="1.651076078414917" rx="0" fill="#E5E9EE" fill-opacity="1"/></g><g><rect x="138.30913496017456" y="101.52514457702637" width="6.604467868804932" height="1.651076078414917" rx="0" fill="#E5E9EE" fill-opacity="1"/></g><g><rect x="138.30913496017456" y="98.22299385070801" width="6.604467868804932" height="1.651076078414917" rx="0" fill="#D8D8D8" fill-opacity="1"/></g><g><rect x="138.30913496017456" y="104.82729911804199" width="6.604467868804932" height="1.651076078414917" rx="0" fill="#D8D8D8" fill-opacity="1"/></g><g><rect x="148.2158374786377" y="94.92083930969238" width="6.604467868804932" height="1.651076078414917" rx="0" fill="#E5E9EE" fill-opacity="1"/></g><g><rect x="148.2158374786377" y="101.52514457702637" width="6.604467868804932" height="1.651076078414917" rx="0" fill="#E5E9EE" fill-opacity="1"/></g><g><rect x="148.2158374786377" y="98.22299385070801" width="6.604467868804932" height="1.651076078414917" rx="0" fill="#D8D8D8" fill-opacity="1"/></g><g><rect x="148.2158374786377" y="104.82729911804199" width="6.604467868804932" height="1.651076078414917" rx="0" fill="#D8D8D8" fill-opacity="1"/></g><g><rect x="155.6458625793457" y="94.92083930969238" width="6.604467868804932" height="1.651076078414917" rx="0" fill="#E5E9EE" fill-opacity="1"/></g><g><rect x="130.87910842895508" y="108.95498847961426" width="6.604467868804932" height="1.651076078414917" rx="0" fill="#E5E9EE" fill-opacity="1"/></g><g><rect x="138.30914115905762" y="108.95498847961426" width="6.604467868804932" height="1.651076078414917" rx="0" fill="#E5E9EE" fill-opacity="1"/></g><g><rect x="155.6458625793457" y="98.22299385070801" width="6.604467868804932" height="1.651076078414917" rx="0" fill="#D8D8D8" fill-opacity="1"/></g><g><rect x="155.6458625793457" y="101.52514457702637" width="6.604467868804932" height="1.651076078414917" rx="0" fill="#D8D8D8" fill-opacity="1"/></g><g><rect x="155.6458625793457" y="104.82729911804199" width="6.604467868804932" height="1.651076078414917" rx="0" fill="#D8D8D8" fill-opacity="1"/></g><g><rect x="164.7270050048828" y="94.92083930969238" width="6.604467868804932" height="1.651076078414917" rx="0" fill="#E5E9EE" fill-opacity="1"/></g><g><rect x="164.7270050048828" y="101.52514457702637" width="6.604467868804932" height="1.651076078414917" rx="0" fill="#E5E9EE" fill-opacity="1"/></g><g><rect x="164.7270050048828" y="98.22299385070801" width="6.604467868804932" height="1.651076078414917" rx="0" fill="#D8D8D8" fill-opacity="1"/></g><g><rect x="164.7270050048828" y="104.82729911804199" width="6.604467868804932" height="1.651076078414917" rx="0" fill="#D8D8D8" fill-opacity="1"/></g><g><rect x="172.98259353637695" y="94.92083930969238" width="6.604467868804932" height="1.651076078414917" rx="0" fill="#E5E9EE" fill-opacity="1"/></g><g><rect x="172.98259353637695" y="101.52514457702637" width="6.604467868804932" height="1.651076078414917" rx="0" fill="#E5E9EE" fill-opacity="1"/></g><g><rect x="172.98259353637695" y="98.22299385070801" width="6.604467868804932" height="1.651076078414917" rx="0" fill="#D8D8D8" fill-opacity="1"/></g><g><rect x="172.98259353637695" y="104.82729911804199" width="6.604467868804932" height="1.651076078414917" rx="0" fill="#D8D8D8" fill-opacity="1"/></g><g><rect x="130.87910842895508" y="77.58454322814941" width="48.707950592041016" height="1.651076078414917" rx="0" fill="#D8D8D8" fill-opacity="1"/></g><g><rect x="130.87910842895508" y="91.61868858337402" width="48.707950592041016" height="1.651076078414917" rx="0" fill="#E5E9EE" fill-opacity="1"/></g><g><rect x="130.87910842895508" y="80.88669395446777" width="19.813404083251953" height="1.651076078414917" rx="0" fill="#E5E9EE" fill-opacity="1"/></g><g filter="url(#master_svg7_4555_004622)"><rect x="142.43692684173584" y="89.14207649230957" width="19.813404083251953" height="1.651076078414917" rx="0" fill="#D8D8D8" fill-opacity="1"/></g><g filter="url(#master_svg8_4555_004626)"><rect x="141.6113691329956" y="67.67808532714844" width="26.417871475219727" height="2.476613998413086" rx="0" fill="#D8D8D8" fill-opacity="1"/></g></g><g><path d="M132.53022527694702,63.35039501190185L179.17432527694703,63.35039501190185Q179.214025276947,63.35039501190185,179.250825276947,63.365619011901856Q179.287525276947,63.38084301190185,179.31572527694703,63.408974011901854Q179.34382527694703,63.43710401190186,179.35902527694702,63.47385831190186Q179.37422527694702,63.510612511901854,179.37432527694702,63.550395011901855Q179.37422527694702,63.59017751190186,179.35902527694702,63.626931711901854Q179.34382527694703,63.66368601190185,179.31572527694703,63.69181601190186Q179.287525276947,63.71994701190186,179.250825276947,63.735171011901855Q179.214025276947,63.75039501190186,179.17432527694703,63.75039501190186L132.53022527694702,63.75039501190186Q132.49044277694702,63.75039501190186,132.45368857694703,63.735171011901855Q132.41693427694702,63.71994701190186,132.388804276947,63.69181601190186Q132.360673276947,63.66368601190185,132.34544927694702,63.626931711901854Q132.33022527694703,63.59017751190186,132.33022527694703,63.550395011901855Q132.33022527694703,63.510612511901854,132.34544927694702,63.47385831190186Q132.360673276947,63.43710401190186,132.388804276947,63.408974011901854Q132.41693427694702,63.38084301190185,132.45368857694703,63.365619011901856Q132.49044277694702,63.35039501190185,132.53022527694702,63.35039501190185Z" fill-rule="evenodd" fill="#BFBFBF" fill-opacity="1"/></g></g><g><g><rect x="86.68796157836914" y="55.54347801208496" width="56.96353530883789" height="66.86857604980469" rx="0" fill="#F7F9FC" fill-opacity="1"/><rect x="87.18796157836914" y="56.04347801208496" width="55.96353530883789" height="65.86857604980469" rx="0" fill-opacity="0" stroke-opacity="1" stroke="#D9D9D9" fill="none" stroke-width="1"/></g><g><g filter="url(#master_svg9_4555_004702)"><rect x="94.94354629516602" y="63.798858642578125" width="40.45236587524414" height="3.302152156829834" rx="0" fill="#E5E9EE" fill-opacity="1"/></g><g><rect x="94.94354629516602" y="81.96069526672363" width="9.906702041625977" height="1.651076078414917" rx="0" fill="#E5E9EE" fill-opacity="1"/></g><g><rect x="90.81575393676758" y="102.5991439819336" width="6.604467868804932" height="1.651076078414917" rx="0" fill="#E5E9EE" fill-opacity="1"/></g><g><rect x="90.81575393676758" y="109.20344924926758" width="6.604467868804932" height="1.651076078414917" rx="0" fill="#E5E9EE" fill-opacity="1"/></g><g><rect x="90.81575393676758" y="105.90129852294922" width="6.604467868804932" height="1.651076078414917" rx="0" fill="#D8D8D8" fill-opacity="1"/></g><g><rect x="90.81575393676758" y="112.5056037902832" width="6.604467868804932" height="1.651076078414917" rx="0" fill="#D8D8D8" fill-opacity="1"/></g><g><rect x="98.24578046798706" y="102.5991439819336" width="6.604467868804932" height="1.651076078414917" rx="0" fill="#E5E9EE" fill-opacity="1"/></g><g><rect x="98.24578046798706" y="109.20344924926758" width="6.604467868804932" height="1.651076078414917" rx="0" fill="#E5E9EE" fill-opacity="1"/></g><g><rect x="98.24578046798706" y="105.90129852294922" width="6.604467868804932" height="1.651076078414917" rx="0" fill="#D8D8D8" fill-opacity="1"/></g><g><rect x="98.24578046798706" y="112.5056037902832" width="6.604467868804932" height="1.651076078414917" rx="0" fill="#D8D8D8" fill-opacity="1"/></g><g><rect x="108.1524829864502" y="102.5991439819336" width="6.604467868804932" height="1.651076078414917" rx="0" fill="#E5E9EE" fill-opacity="1"/></g><g><rect x="108.1524829864502" y="109.20344924926758" width="6.604467868804932" height="1.651076078414917" rx="0" fill="#E5E9EE" fill-opacity="1"/></g><g><rect x="108.1524829864502" y="105.90129852294922" width="6.604467868804932" height="1.651076078414917" rx="0" fill="#D8D8D8" fill-opacity="1"/></g><g><rect x="108.1524829864502" y="112.5056037902832" width="6.604467868804932" height="1.651076078414917" rx="0" fill="#D8D8D8" fill-opacity="1"/></g><g><rect x="115.5825080871582" y="102.5991439819336" width="6.604467868804932" height="1.651076078414917" rx="0" fill="#E5E9EE" fill-opacity="1"/></g><g><rect x="90.81575393676758" y="116.63329315185547" width="6.604467868804932" height="1.651076078414917" rx="0" fill="#E5E9EE" fill-opacity="1"/></g><g><rect x="98.24578666687012" y="116.63329315185547" width="6.604467868804932" height="1.651076078414917" rx="0" fill="#E5E9EE" fill-opacity="1"/></g><g><rect x="115.5825080871582" y="105.90129852294922" width="6.604467868804932" height="1.651076078414917" rx="0" fill="#D8D8D8" fill-opacity="1"/></g><g><rect x="115.5825080871582" y="109.20344924926758" width="6.604467868804932" height="1.651076078414917" rx="0" fill="#D8D8D8" fill-opacity="1"/></g><g><rect x="115.5825080871582" y="112.5056037902832" width="6.604467868804932" height="1.651076078414917" rx="0" fill="#D8D8D8" fill-opacity="1"/></g><g><rect x="124.66365051269531" y="102.5991439819336" width="6.604467868804932" height="1.651076078414917" rx="0" fill="#E5E9EE" fill-opacity="1"/></g><g><rect x="124.66365051269531" y="109.20344924926758" width="6.604467868804932" height="1.651076078414917" rx="0" fill="#E5E9EE" fill-opacity="1"/></g><g><rect x="124.66365051269531" y="105.90129852294922" width="6.604467868804932" height="1.651076078414917" rx="0" fill="#D8D8D8" fill-opacity="1"/></g><g><rect x="124.66365051269531" y="112.5056037902832" width="6.604467868804932" height="1.651076078414917" rx="0" fill="#D8D8D8" fill-opacity="1"/></g><g><rect x="132.91923904418945" y="102.5991439819336" width="6.604467868804932" height="1.651076078414917" rx="0" fill="#E5E9EE" fill-opacity="1"/></g><g><rect x="132.91923904418945" y="109.20344924926758" width="6.604467868804932" height="1.651076078414917" rx="0" fill="#E5E9EE" fill-opacity="1"/></g><g><rect x="132.91923904418945" y="105.90129852294922" width="6.604467868804932" height="1.651076078414917" rx="0" fill="#D8D8D8" fill-opacity="1"/></g><g><rect x="132.91923904418945" y="112.5056037902832" width="6.604467868804932" height="1.651076078414917" rx="0" fill="#D8D8D8" fill-opacity="1"/></g><g><rect x="90.81575393676758" y="85.26284790039062" width="48.707950592041016" height="1.651076078414917" rx="0" fill="#D8D8D8" fill-opacity="1"/></g><g><rect x="90.81575393676758" y="99.29699325561523" width="48.707950592041016" height="1.651076078414917" rx="0" fill="#E5E9EE" fill-opacity="1"/></g><g><rect x="90.81575393676758" y="88.56499862670898" width="19.813404083251953" height="1.651076078414917" rx="0" fill="#E5E9EE" fill-opacity="1"/></g><g filter="url(#master_svga_4555_004720)"><rect x="102.37357234954834" y="96.82038116455078" width="19.813404083251953" height="1.651076078414917" rx="0" fill="#D8D8D8" fill-opacity="1"/></g><g filter="url(#master_svgb_4555_004719)"><rect x="101.5480146408081" y="75.35638999938965" width="26.417871475219727" height="2.476613998413086" rx="0" fill="#D8D8D8" fill-opacity="1"/></g></g><g><path d="M92.46687078475952,71.02869968414306L139.11097078475953,71.02869968414306Q139.1506707847595,71.02869968414306,139.1874707847595,71.04392368414307Q139.2241707847595,71.05914768414307,139.25237078475953,71.08727868414307Q139.28047078475953,71.11540868414306,139.29567078475952,71.15216298414306Q139.31087078475952,71.18891718414307,139.31097078475952,71.22869968414307Q139.31087078475952,71.26848218414307,139.29567078475952,71.30523638414307Q139.28047078475953,71.34199068414307,139.25237078475953,71.37012068414306Q139.2241707847595,71.39825168414306,139.1874707847595,71.41347568414307Q139.1506707847595,71.42869968414307,139.11097078475953,71.42869968414307L92.46687078475952,71.42869968414307Q92.42708828475952,71.42869968414307,92.39033408475952,71.41347568414307Q92.35357978475952,71.39825168414306,92.32544978475953,71.37012068414306Q92.29731878475953,71.34199068414307,92.28209478475952,71.30523638414307Q92.26687078475952,71.26848218414307,92.26687078475952,71.22869968414307Q92.26687078475952,71.18891718414307,92.28209478475952,71.15216298414306Q92.29731878475953,71.11540868414306,92.32544978475953,71.08727868414307Q92.35357978475952,71.05914768414307,92.39033408475952,71.04392368414307Q92.42708828475952,71.02869968414306,92.46687078475952,71.02869968414306Z" fill-rule="evenodd" fill="#D8D8D8" fill-opacity="1"/></g></g></g></g></svg>