<svg xmlns="http://www.w3.org/2000/svg" xmlns:xlink="http://www.w3.org/1999/xlink" fill="none" version="1.1" width="13" height="13" viewBox="0 0 13 13"><g><path d="M0.00042301,0.563778C0.00014188,0.556609,0,0.549403,0,0.542165C0,0.280784,0.186522,0.0566127,0.443578,0.00905145C0.476123,0.0030299,0.509151,0,0.542247,0L4.78963,0C4.81,0,4.8301,0.00112254,4.84988,0.00330911L5.70638,0.00330911C6.00586,0.00330911,6.24863,0.246044,6.24863,0.545474C6.24863,0.844903,6.00586,1.08764,5.70638,1.08764L1.08492,1.08764L1.08492,11.9157L11.9146,11.9157L11.9146,8.20849C11.9146,8.19811,11.9149,8.18779,11.9155,8.17754L11.9155,7.2958C11.9155,6.99637,12.1583,6.75364,12.4578,6.75364C12.7572,6.75364,13,6.99637,13,7.2958L13,12.4578C13,12.7573,12.7572,13,12.4578,13L0.54267,13C0.243195,13,0.00042301,12.7573,0.00042301,12.4578L0.00042301,0.563778ZM12.0904,0.207309L3.91807,7.70535C3.69742,7.9078,3.68268,8.25076,3.88516,8.47138C4.08764,8.692,4.43066,8.70673,4.65131,8.50428L12.8236,1.00624C13.0443,0.803795,13.059,0.460831,12.8565,0.240212C12.6541,0.0195925,12.311,0.00486129,12.0904,0.207309Z" fill-rule="evenodd" fill="#1677DC" fill-opacity="1"/></g></svg>