<svg xmlns="http://www.w3.org/2000/svg" xmlns:xlink="http://www.w3.org/1999/xlink" fill="none" version="1.1" width="16" height="16" viewBox="0 0 16 16"><g><g><path d="M7.43677,7.43677L2.032683,7.43677Q1.809828,7.43677,1.653434,7.60439Q1.5,7.76884,1.5,8Q1.5,8.23116,1.653433,8.39561Q1.809827,8.56323,2.032683,8.56323L7.43677,8.56323L7.43677,13.9672Q7.43677,14.1901,7.60437,14.3465Q7.76884,14.5,8,14.5Q8.23116,14.5,8.395620000000001,14.3465Q8.56323,14.1901,8.56323,13.9672L8.56323,8.56323L13.9673,8.56323Q14.1902,8.56323,14.3466,8.39561Q14.5,8.23116,14.5,8Q14.5,7.76884,14.3466,7.60439Q14.1902,7.43677,13.9673,7.43677L8.56323,7.43677L8.56323,2.03278Q8.56323,1.809926,8.395620000000001,1.653494Q8.23116,1.5,8,1.5Q7.76884,1.5,7.60438,1.653494Q7.43677,1.809925,7.43677,2.03278L7.43677,7.43677Z" fill-rule="evenodd" fill="#1677DC" fill-opacity="1"/></g></g></svg>