<svg xmlns="http://www.w3.org/2000/svg" xmlns:xlink="http://www.w3.org/1999/xlink" fill="none" version="1.1" width="40" height="20" viewBox="0 0 40 20"><g><g><rect x="0" y="0" width="40" height="20" rx="2" fill="#ECF9ED" fill-opacity="1"/></g><g><path d="M11.30859,11.14216L11.30859,15.7906L12.1875,15.7906L12.1875,14.982L17.71875,14.982L17.71875,15.7672L18.6445,15.7672L18.6445,11.14216L11.30859,11.14216ZM12.1875,14.1695L12.1875,11.982L17.71875,11.982L17.71875,14.1695L12.1875,14.1695ZM13.23047,4.84528C13.48438,5.32184,13.78125,5.94294,13.9375,6.3921600000000005L9.84766,6.3921600000000005L9.84766,9.278880000000001C9.84766,11.157779999999999,9.71484,13.5289,8.429688,15.2359C8.632812,15.3492,9.01953,15.689,9.16406,15.8804C10.43359,14.1578,10.72266,11.70856,10.75781,9.732L18.425800000000002,9.732L18.425800000000002,6.3921600000000005L14.49219,6.3921600000000005L14.89844,6.25544C14.74219,5.80622,14.40625,5.107,14.08203,4.59528L13.23047,4.84528ZM10.75781,7.232L17.51562,7.232L17.51562,8.89216L10.75781,8.89216L10.75781,7.232ZM21.835900000000002,5.482L21.835900000000002,9.935130000000001C21.835900000000002,11.61872,21.7148,13.7633,20.3828,15.2789C20.585900000000002,15.3843,20.9453,15.6851,21.0781,15.8843C22.0039,14.8453,22.4102,13.44684,22.5898,12.08747L25.6016,12.08747L25.6016,15.6968L26.5156,15.6968L26.5156,12.08747L29.7539,12.08747L29.7539,14.5797C29.7539,14.7984,29.6719,14.8687,29.4297,14.8804C29.2031,14.8922,28.3867,14.9078,27.5469,14.8687C27.668,15.1109,27.8125,15.5054,27.8594,15.732C28.9883,15.7476,29.6836,15.732,30.0898,15.5914C30.5,15.4468,30.6445,15.1695,30.6445,14.5797L30.6445,5.482L21.835900000000002,5.482ZM22.7227,6.34919L25.6016,6.34919L25.6016,8.38044L22.7227,8.38044L22.7227,6.34919ZM29.7539,6.34919L29.7539,8.38044L26.5156,8.38044L26.5156,6.34919L29.7539,6.34919ZM22.7227,9.232L25.6016,9.232L25.6016,11.232L22.675800000000002,11.232C22.710900000000002,10.782779999999999,22.7227,10.341380000000001,22.7227,9.935130000000001L22.7227,9.232ZM29.7539,9.232L29.7539,11.232L26.5156,11.232L26.5156,9.232L29.7539,9.232Z" fill="#29BC38" fill-opacity="1"/></g></g></svg>